<svg width="39" height="39" viewBox="0 0 39 39" fill="none" xmlns="http://www.w3.org/2000/svg">
<path fill-rule="evenodd" clip-rule="evenodd" d="M31.1772 3.39626C32.0239 3.80251 33.0232 4.39076 33.8179 5.18538C34.6141 5.98163 35.2024 6.97938 35.6054 7.82601C36.114 8.88876 35.7841 10.114 34.9537 10.946L23.231 22.6671C22.7272 23.1709 22.113 23.5463 21.4354 23.764L14.5746 25.9626C14.3612 26.0311 14.1331 26.0394 13.9153 25.9866C13.6975 25.9338 13.4985 25.822 13.3401 25.6635C13.1817 25.5049 13.0701 25.3058 13.0176 25.0879C12.965 24.8701 12.9736 24.6419 13.0422 24.4286L15.2409 17.5695C15.4579 16.8923 15.8334 16.2768 16.3361 15.7739L28.0589 4.05113C28.8909 3.21913 30.1161 2.89088 31.1789 3.39788L31.1772 3.39626ZM31.5201 7.48476C31.1187 7.10556 30.6657 6.78498 30.1746 6.53251L18.8094 17.8978C18.6939 18.0131 18.5964 18.1451 18.5201 18.2894L16.0875 22.9158L20.7122 20.4848C20.8585 20.4084 20.9901 20.3109 21.1055 20.1955L32.4707 8.83026C32.2182 8.33917 31.8993 7.8862 31.5201 7.48476ZM8.12337 8.93751C8.12303 8.72994 8.20213 8.53011 8.34445 8.37902C8.48678 8.22793 8.68153 8.13704 8.88875 8.12501L17.875 8.13313C18.306 8.13313 18.7193 7.96193 19.024 7.65718C19.3288 7.35243 19.5 6.93911 19.5 6.50813C19.5 6.07715 19.3288 5.66383 19.024 5.35908C18.7193 5.05434 18.306 4.88313 17.875 4.88313L8.9375 4.87501C7.86006 4.87501 6.82675 5.30302 6.06488 6.06488C5.30301 6.82675 4.875 7.86006 4.875 8.93751V29.3751C4.875 30.6101 5.00825 31.3008 5.39337 32.019C5.75737 32.6999 6.30012 33.2443 6.981 33.6083C7.69925 33.9918 8.38825 34.125 9.62487 34.125H29.3751C30.6101 34.125 31.3007 33.9918 32.019 33.6083C32.7015 33.2443 33.2442 32.6999 33.6082 32.019C33.9917 31.3008 34.125 30.6118 34.125 29.3751V21.125C34.125 20.694 33.9538 20.2807 33.649 19.976C33.3443 19.6712 32.931 19.5 32.5 19.5C32.069 19.5 31.6557 19.6712 31.3509 19.976C31.0462 20.2807 30.875 20.694 30.875 21.125V29.3751C30.875 30.121 30.8409 30.303 30.7417 30.4866C30.6854 30.5962 30.5962 30.6854 30.4866 30.7418C30.303 30.8393 30.121 30.875 29.3751 30.875H9.62487C8.879 30.875 8.69862 30.8393 8.51337 30.7418C8.40377 30.6854 8.31456 30.5962 8.25825 30.4866C8.16075 30.303 8.125 30.121 8.125 29.3751L8.12337 8.93751Z" fill="#6C6C6C"/>
</svg>
